<svg xmlns="http://www.w3.org/2000/svg" viewBox="0 0 685.93 185.46"><defs><style>.cls-1{fill:#8541ce;}</style></defs><title>logo_horizontalAsset 3</title><g id="Layer_2" data-name="Layer 2"><g id="Layer_1-2" data-name="Layer 1"><path class="cls-1" d="M0,0V185.46H185.46V0ZM145,109c-1.91.81-3.78,1.5-5.81,2.15a57.63,57.63,0,0,1-9.46,2c-.16,0-.38.12-.54.12a78.41,78.41,0,0,1-7.95.42A56.24,56.24,0,0,1,104,110.55a21.23,21.23,0,0,0,.94,3,37.77,37.77,0,0,0,2.13,4.87,28.28,28.28,0,0,0,2,3.28c.12.16.12.27.23.44a1.85,1.85,0,0,1,.34.38,27.41,27.41,0,0,0,2.82,3.42c0,.06.06.17.11.22a46.93,46.93,0,0,0,12.08,9.06c-2.46,1.31-4.86,2.63-7.32,3.94-.28.11-.49.23-.77.34-1,.52-1.91,1-2.9,1.54-2.89,1.6-5.68,3.09-8.52,4.63-.9-.76-1.79-1.35-2.69-2.11-.06-.05-.11-.16-.17-.22A55.87,55.87,0,0,1,86.9,122.89c-.06-.11,0-.17-.06-.28a9,9,0,0,1-.58-1.37c-.06-.16-.17-.27-.23-.43a54.94,54.94,0,0,1-1.69-5.27c-.06-.17-.12-.28-.18-.44-.35-1.48-.65-2.86-1-4.29-.93.9-1.68,1.85-2.55,2.81,0,0,0,.16-.11.22l-.48.5c-.06.06-.06.17-.11.23a.91.91,0,0,0-.27.39l-.32.33c-.06.06-.06.17-.11.23l-.16.17c-.06,0,0,.16-.11.22l-.16.17a1,1,0,0,1-.27.39c-.11.11-.11.28-.21.44a15.85,15.85,0,0,0-1.45,2.46,1,1,0,0,1-.27.39,42.11,42.11,0,0,0-4.37,21.32c-5.25-3.32-10.32-6.49-15.85-9.87-.95-.54-1.78-1.07-2.73-1.66-.11-.06-.22-.05-.22-.11a51.93,51.93,0,0,1,3.87-15.08c.05-.11,0-.17.05-.28a56.21,56.21,0,0,1,8.74-14.45c.22-.28.38-.5.59-.78.65-.67,1.19-1.35,1.84-2,.55-.51,1-1.07,1.58-1.57.38-.34.76-.68,1.14-1.07s.92-.74,1.36-1.18a38,38,0,0,0-20.25.35,47.54,47.54,0,0,0-11.45,5.28c.26-7.4.52-14.74.72-22.14,1.91-.81,3.83-1.5,5.81-2.15,2.14-.64,4.17-1.12,6.43-1.6,1.43-.25,2.75-.43,4.13-.62h.55a53.42,53.42,0,0,1,18,1s.17.11.22.11a49.85,49.85,0,0,1,5.94,1.71,20.25,20.25,0,0,0-.94-3,37.77,37.77,0,0,0-2.13-4.87,28.28,28.28,0,0,0-2-3.28c-.11-.16-.12-.27-.23-.44a2.2,2.2,0,0,1-.34-.38,27.41,27.41,0,0,0-2.82-3.42c0-.06-.06-.17-.11-.22a46.93,46.93,0,0,0-12.08-9.06c2.46-1.31,4.86-2.63,7.32-3.94.28-.11.49-.23.77-.34L73,44.48c2.89-1.59,5.68-3.08,8.52-4.62.9.76,1.79,1.35,2.69,2.11.06.05.11.16.17.22A55.87,55.87,0,0,1,99.79,62.61c.06.11,0,.17.06.28a9,9,0,0,1,.58,1.37c.06.16.17.27.23.43A54.94,54.94,0,0,1,102.35,70c.06.17.12.28.18.44.35,1.48.65,2.86,1,4.29.93-.9,1.68-1.85,2.55-2.81,0,0,0-.16.11-.22l.48-.5c.06-.06.06-.17.11-.23a.91.91,0,0,0,.27-.39l.32-.34c.06,0,.06-.16.11-.22l.16-.17c.06,0,.06-.16.11-.22l.16-.17a1,1,0,0,1,.27-.39c.11-.11.11-.28.21-.44a15.09,15.09,0,0,0,1.45-2.46,1,1,0,0,1,.27-.39,42.13,42.13,0,0,0,4.37-21.33c5.25,3.33,10.32,6.5,15.85,9.88.95.54,1.78,1.07,2.73,1.66.11.06.22,0,.23.11a52.27,52.27,0,0,1-3.88,15.08c-.05.11,0,.17-.05.28a56.21,56.21,0,0,1-8.74,14.45l-.59.78c-.65.67-1.19,1.34-1.84,2-.55.51-1,1.07-1.58,1.57-.38.34-.76.68-1.14,1.07s-.92.73-1.35,1.18a37.12,37.12,0,0,0,12.16,1.11,37.5,37.5,0,0,0,8.08-1.46,47.54,47.54,0,0,0,11.45-5.28C145.5,94.26,145.24,101.6,145,109Z"/><path d="M277.88,182.09v-2.2c0-9.5,0-19,0-28.5a24.31,24.31,0,0,0-.4-4.75c-.83-4.08-3.25-6.38-7.06-6.95a9.57,9.57,0,0,0-10,4.36,16.44,16.44,0,0,0-1.87,8.51v29.52H244.86v-2.19c0-9.5,0-19,0-28.5a24.4,24.4,0,0,0-.42-4.75c-.83-4.06-3.25-6.35-7.08-6.94-4.28-.67-8.15,1-10.12,4.43-1.56,2.7-1.83,5.67-1.84,8.7v29.28H211.74V129.44h12.9v5.05c4.44-4.9,9.93-6.63,16.22-6.34s11.47,2.81,14.89,8.47c.75-1,1.36-1.87,2.09-2.67,5.42-5.91,12.31-6.71,19.62-5.25,7.86,1.57,13,7.56,13.84,15.63.19,1.82.27,3.66.28,5.5q0,15.07,0,30.15v2.11Z"/><path d="M619.72,182.11H606.2V129.49h12.93v5.58c4.4-5.54,9.87-7.19,16.11-6.92s11.43,2.83,14.85,8.38a4.37,4.37,0,0,0,.51-.47,20.51,20.51,0,0,1,26.77-5.26,16.93,16.93,0,0,1,8.37,14.71c.32,12,.14,24,.16,36a2.55,2.55,0,0,1-.19.58H672.24V180q0-14.43,0-28.85a24.4,24.4,0,0,0-.3-4c-.83-4.53-3.47-7.08-7.6-7.47-4.81-.46-8.72,1.57-10.16,5.81a25.56,25.56,0,0,0-1.23,7.73c-.14,8.88-.06,17.77-.06,26.65v2.27h-13.7V151.73c0-.73,0-1.47,0-2.2-.18-6-3.16-9.57-8.21-9.91-5.89-.39-10,2.88-10.87,8.84a33.89,33.89,0,0,0-.34,4.94c0,8.88,0,17.77,0,26.65Z"/><path d="M298,145c1.16-6.32,4.46-10.88,9.85-13.67a28.84,28.84,0,0,1,24.2-1.36c7.25,2.72,10.78,8.49,11.1,16.06.27,6.48.09,13,.11,19.47,0,.68,0,1.35,0,2,.22,2.4,1.12,3.25,3.49,3.35.67,0,1.34,0,2.16,0v11.28c-4.49,0-9.16.77-13.37-1.54-1.78-1-3.12-2.76-4.76-4.26.21-.18,0-.06-.14.12-6.43,8.5-19.18,8.12-25.65,4.74-5.42-2.83-8.33-7.31-8.37-13.43a14.54,14.54,0,0,1,8.3-13.86c4-2.09,8.41-2.54,12.74-3.3,2.89-.51,5.8-1,8.69-1.48,3.07-.55,4-2.06,3.25-5.11a6.62,6.62,0,0,0-4.38-4.81c-6.08-2.29-11.67.18-14.19,6.18a1.64,1.64,0,0,1-1.31.78C305.92,145.87,302.1,145.44,298,145Zm31.92,12.72c-5,.87-10,1.55-14.87,2.66-3.7.84-5.3,3.48-5,7.08.29,3.09,2.48,5,6.15,5.46C324.75,173.92,331.05,167.14,329.92,157.73Z"/><path d="M401.84,159.46H364.31A12.59,12.59,0,0,0,372.44,172c6.91,2.28,11.62.24,16.08-7.07l11.67,2.76c-1.55,5.66-4.63,9.95-9.68,12.68-6.34,3.42-13.15,3.75-20,2.46-11.28-2.12-18.34-10.08-19.58-21.55-.66-6.11-.4-12.11,2-17.85,4-9.28,11.16-14.28,21.05-15.09a31.66,31.66,0,0,1,11.05,1c9.71,2.79,14.63,10,16.17,19.62C401.74,152.34,401.64,155.79,401.84,159.46Zm-14.14-9.22c-.05-7.07-4.27-11.44-11-11.46-7,0-12.14,4.78-12.24,11.46Z"/><path d="M573.49,183.37c-10.24-.13-18.68-3.75-23.37-13.32a31.21,31.21,0,0,1,0-28.38c4-8.39,11.26-12.64,20.37-13.33a37.44,37.44,0,0,1,11.46.89c10.05,2.43,16.89,10.59,18.27,21,.78,5.87.56,11.64-1.68,17.17-4.12,10.14-11.93,15.17-22.65,16C575.08,183.42,574.28,183.37,573.49,183.37Zm11.15-37.49c-2-4.73-6-6.71-11.06-6.68s-8.83,2.16-10.83,6.78a23.92,23.92,0,0,0,0,19.45c2,4.61,5.71,6.86,10.74,6.92s9.2-1.94,11.21-6.74C587.68,160.56,587.68,151,584.64,145.88Z"/><path d="M426.32,166.21c4.33-.45,8.52-.91,12.72-1.27.35,0,1,.59,1.12,1,1.42,4.87,3.45,6.82,8.49,7.18a19.81,19.81,0,0,0,7-.86c2.41-.72,3.37-2.86,3.35-5.36a4.38,4.38,0,0,0-3.48-4.44c-3.66-.94-7.43-1.47-11.13-2.29a39.43,39.43,0,0,1-6.52-1.84c-5.75-2.33-9.33-6.5-9.64-12.88a14.29,14.29,0,0,1,8.08-14.18c8.77-4.54,17.86-4.46,26.67-.07,5.18,2.58,7.72,7.28,8.66,13.16l-12.19,1.46c-.19-.18-.32-.24-.36-.34-2.27-6.33-7.07-8.76-13.64-6.91-2.66.76-4.23,2.56-4.25,4.88s1.16,4,4.05,4.73c3.5.86,7.09,1.33,10.62,2.08a47.76,47.76,0,0,1,6.9,1.86c5.42,2,9.18,5.67,9.8,11.72.68,6.62-1.46,12.19-7.25,15.76a24.55,24.55,0,0,1-8.14,3.14c-7.29,1.36-14.56,1-21.36-2.33C430.07,177.57,426.89,172.87,426.32,166.21Z"/><path d="M509,171.08v11.13c-6-.23-12,.77-17.87-1.17-5.3-1.77-8.12-6.18-8.21-13-.11-8.39,0-16.78,0-25.18v-2.45h-8.13v-11h8.1V113.25h13.64v16h11.33v11H496.67c0,.82-.09,1.42-.09,2v22.06a15.91,15.91,0,0,0,.07,1.83c.33,3.31,1.64,4.56,5,4.65,2.33.06,4.65,0,7,.07C508.7,170.88,508.8,171,509,171.08Z"/><path d="M420.56,182.16H407.2v-73h13.36Z"/><path d="M528.82,182.16H515.29V129.44h12.82v7.29l.38.23c2-3,4.39-5.58,7.82-6.48a99.05,99.05,0,0,1,10.25-1.59v13H542.3c-7,0-11.29,3.41-12.68,10.31a42.76,42.76,0,0,0-.77,7.83c-.1,6.67,0,13.35,0,20Z"/></g></g></svg>